<?xml version="1.0" standalone="no"?>
<!DOCTYPE svg PUBLIC "-//W3C//DTD SVG 20010904//EN"
 "http://www.w3.org/TR/2001/REC-SVG-20010904/DTD/svg10.dtd">
<svg version="1.0" xmlns="http://www.w3.org/2000/svg"
 width="500.000000pt" height="281.000000pt" viewBox="0 0 500.000000 281.000000"
 preserveAspectRatio="xMidYMid meet">

<g transform="translate(0.000000,281.000000) scale(0.100000,-0.100000)"
fill="#000000" stroke="none">
<path d="M2369 2731 c-313 -33 -578 -160 -805 -385 -120 -120 -186 -210 -256
-351 -89 -178 -127 -326 -135 -533 -9 -214 20 -380 99 -572 131 -319 424 -605
745 -726 77 -29 107 -30 133 -4 18 18 20 33 20 153 l0 132 -137 0 c-131 0
-141 1 -189 27 -64 34 -93 67 -139 163 -35 73 -88 137 -148 180 -38 27 -40 56
-5 66 69 19 168 -35 230 -125 42 -62 110 -122 155 -137 43 -14 177 -7 216 11
17 8 27 21 27 34 0 25 43 121 59 130 22 14 10 24 -36 30 -87 13 -196 47 -265
83 -184 97 -278 278 -282 543 -1 140 22 225 88 324 l43 65 -14 53 c-16 61 -11
168 13 247 14 48 17 51 48 51 64 0 226 -64 308 -121 25 -18 29 -19 95 -2 95
24 438 25 532 1 l64 -16 86 48 c102 58 200 92 249 88 35 -3 37 -6 54 -58 19
-63 23 -205 7 -263 -9 -34 -8 -41 16 -69 71 -85 105 -194 105 -342 0 -140 -19
-230 -70 -332 -74 -151 -203 -240 -410 -285 -58 -13 -107 -24 -109 -25 -2 -2
6 -15 17 -31 51 -72 57 -112 57 -364 0 -219 1 -238 19 -258 25 -28 59 -27 136
5 182 74 324 170 462 312 263 272 388 598 375 977 -11 335 -129 617 -359 860
-249 263 -552 401 -918 418 -58 3 -139 2 -181 -2z"/>
</g>
</svg>
