<?xml version="1.0" encoding="UTF-8"?>
<svg version="1.1" xmlns="http://www.w3.org/2000/svg" width="512" height="512">
<path d="M0 0 C1.11132797 -0.0159874 2.22265594 -0.03197479 3.36766052 -0.04844666 C4.57285843 -0.05380936 5.77805634 -0.05917206 7.01977539 -0.06469727 C8.25280899 -0.07372574 9.48584259 -0.08275421 10.75624084 -0.09205627 C13.36806804 -0.10658599 15.97993187 -0.11545223 18.59179688 -0.11914062 C21.27416286 -0.12345743 23.95557347 -0.14436074 26.63769531 -0.18066406 C30.49452227 -0.2292865 34.35017435 -0.24491001 38.20727539 -0.25219727 C39.41044907 -0.27172958 40.61362274 -0.2912619 41.85325623 -0.31138611 C43.52497643 -0.30226952 43.52497643 -0.30226952 45.23046875 -0.29296875 C46.21260849 -0.2980394 47.19474823 -0.30311005 48.20664978 -0.30833435 C50.67993164 0.30639648 50.67993164 0.30639648 52.30959129 2.15947914 C54.34614635 6.83632489 54.10202437 11.22206269 54.07865906 16.27180481 C54.08530588 17.39088673 54.09195271 18.50996865 54.09880096 19.66296214 C54.11748292 23.42025679 54.11482209 27.17723445 54.11230469 30.93457031 C54.12131867 33.62494259 54.13151357 36.3152862 54.14318848 39.00564575 C54.16598227 44.80161445 54.17786092 50.59752302 54.18231773 56.39353371 C54.18877731 64.7735661 54.21171127 73.15348976 54.23866103 81.53347834 C54.28193841 95.12956272 54.31189973 108.72564252 54.33349609 122.32177734 C54.35450294 135.52883148 54.38177545 148.73584816 54.41748047 161.94287109 C54.41967929 162.75700727 54.42187812 163.57114344 54.42414358 164.40995041 C54.43521315 168.49424898 54.44640598 172.57854719 54.45766008 176.66284525 C54.55085865 210.54399769 54.62245037 244.42516471 54.67993164 278.30639648 C63.94964438 269.05990423 73.21661711 259.81067548 82.48014927 250.55799103 C86.78214698 246.26120095 91.08506538 241.96534155 95.39013672 237.67163086 C99.54853302 233.52413895 103.70444681 229.37417411 107.85868645 225.22251892 C109.44014153 223.64290451 111.02247317 222.06416715 112.6057148 220.48634338 C114.83146465 218.26790427 117.05401255 216.04630231 119.27587891 213.82397461 C119.92396515 213.17948364 120.57205139 212.53499268 121.23977661 211.87097168 C125.04961461 208.05262394 128.66756714 204.11737799 132.18612903 200.02867299 C134.03548597 197.89646088 135.97423158 195.87152722 137.95947266 193.86572266 C138.72038712 193.09520065 139.48130157 192.32467865 140.26527405 191.5308075 C141.46246315 190.32724358 141.46246315 190.32724358 142.68383789 189.09936523 C143.52534897 188.25215408 144.36686005 187.40494293 145.23387146 186.53205872 C147.00152824 184.75501351 148.77059807 182.97937286 150.54101562 181.20507812 C153.24494459 178.49137445 155.93802125 175.76718736 158.63110352 173.04272461 C160.35635564 171.31094771 162.08224522 169.5798056 163.80883789 167.84936523 C164.60898819 167.03686813 165.40913849 166.22437103 166.23353577 165.38725281 C166.99129807 164.63249161 167.74906036 163.87773041 168.52978516 163.10009766 C169.51737572 162.10703865 169.51737572 162.10703865 170.5249176 161.09391785 C175.27491157 157.15393623 179.33218897 155.9307108 185.44799805 155.90234375 C186.09593826 155.8954805 186.74387848 155.88861725 187.41145325 155.88154602 C189.53502837 155.86337014 191.6578586 155.86710016 193.78149414 155.87280273 C195.26549518 155.86823806 196.74949411 155.86293164 198.23348999 155.85691833 C201.33519106 155.84800663 204.43663434 155.8503899 207.53833008 155.86035156 C211.51093174 155.87186812 215.48264804 155.85157999 219.45513344 155.82243443 C222.51609937 155.80408683 225.57685223 155.80436141 228.63785934 155.81007195 C230.10267763 155.81022518 231.56751033 155.80417868 233.03227615 155.79178047 C235.07896868 155.77688948 237.12401315 155.78752834 239.1706543 155.8046875 C240.91555649 155.80493675 240.91555649 155.80493675 242.69570923 155.80519104 C246.31286475 156.41269872 247.48204345 157.42193758 249.67993164 160.30639648 C250.33618164 163.12280273 250.33618164 163.12280273 249.67993164 166.30639648 C247.80401213 168.93314209 245.54063011 171.05422821 243.17993164 173.24389648 C242.57922852 173.8259082 241.97852539 174.40791992 241.35961914 175.00756836 C238.29800913 177.94866819 235.1548868 180.76894851 231.92993164 183.52905273 C226.39977591 188.33039187 221.32003567 193.59644957 216.17993164 198.80639648 C210.52766448 204.53546573 204.89936028 210.20148976 198.77563477 215.43334961 C194.03756888 219.66802359 189.64170789 224.28399435 185.17993164 228.80639648 C179.52766448 234.53546573 173.89936028 240.20148976 167.77563477 245.43334961 C163.03756888 249.66802359 158.64170789 254.28399435 154.17993164 258.80639648 C148.40696936 264.65780082 142.6599156 270.46476788 136.40454102 275.80883789 C133.87215599 278.00782568 131.53512182 280.35599533 129.17993164 282.74389648 C128.32399414 283.60885742 127.46805664 284.47381836 126.58618164 285.36499023 C125.95711914 286.0056543 125.32805664 286.64631836 124.67993164 287.30639648 C126.3506888 291.13985596 128.84111481 294.25052085 131.42993164 297.49389648 C131.90946289 298.09975586 132.38899414 298.70561523 132.88305664 299.32983398 C137.34152907 304.93704548 141.90575186 310.45632249 146.47460938 315.97363281 C150.68107506 321.0630581 154.79049656 326.21884485 158.85229492 331.42407227 C162.25508625 335.78079994 165.73114108 340.0715726 169.24243164 344.34155273 C176.30391819 352.93076474 183.33377817 361.5441733 190.17993164 370.30639648 C196.23930615 378.0605851 202.45725495 385.68307041 208.67993164 393.30639648 C215.4564763 401.60825952 222.20037851 409.9279391 228.79980469 418.37158203 C231.53260072 421.86279507 234.30283509 425.31787053 237.11743164 428.74389648 C240.81991818 433.25273218 244.51212467 437.7693122 248.17993164 442.30639648 C248.70901123 442.95406982 249.23809082 443.60174316 249.78320312 444.26904297 C254.00543646 449.5093152 254.92840702 452.5975612 254.67993164 459.30639648 C252.81755826 461.16876987 249.70771788 460.46342691 247.2199707 460.48339844 C246.5451062 460.48996964 245.8702417 460.49654083 245.17492676 460.50331116 C242.93180236 460.5230909 240.68874514 460.53471865 238.44555664 460.54467773 C237.6804351 460.54875326 236.91531357 460.55282879 236.12700653 460.55702782 C232.07531502 460.57791116 228.02365757 460.5922015 223.97192383 460.6015625 C219.78750074 460.61261577 215.60361111 460.64699605 211.41937637 460.6867342 C208.20228086 460.71289476 204.98531233 460.72125393 201.76811981 460.72484398 C200.22595376 460.72971354 198.68379351 460.74133818 197.14173126 460.75988197 C194.97988373 460.78425711 192.81941388 460.78331205 190.6574707 460.77636719 C189.42804749 460.78223343 188.19862427 460.78809967 186.9319458 460.79414368 C180.66680737 459.85447874 177.66407413 455.27175146 174.05493164 450.43139648 C173.17678832 449.2654569 172.29785441 448.10011242 171.41821289 446.93530273 C170.96784668 446.3360498 170.51748047 445.73679687 170.0534668 445.11938477 C167.82103343 442.1726997 165.53230096 439.27103032 163.24243164 436.36889648 C162.31663299 435.19312894 161.39085183 434.01734762 160.46508789 432.84155273 C160.00505371 432.25776855 159.54501953 431.67398437 159.07104492 431.07250977 C156.77118927 428.152686 154.4757722 425.22937755 152.17993164 422.30639648 C151.26328654 421.13971287 150.34661987 419.97304621 149.42993164 418.80639648 C124.67993164 387.30639648 124.67993164 387.30639648 99.92993164 355.80639648 C99.24797729 354.93845459 99.24797729 354.93845459 98.55224609 354.05297852 C98.09938232 353.47660645 97.64651855 352.90023438 97.17993164 352.30639648 C96.73415771 351.73904785 96.28838379 351.17169922 95.82910156 350.5871582 C92.88484701 346.83992513 89.94059245 343.09269206 86.99633789 339.34545898 C86.50004883 338.71381836 86.00375977 338.08217773 85.49243164 337.43139648 C83.88826497 335.38972982 82.28409831 333.34806315 80.67993164 331.30639648 C75.2406634 335.8883496 70.03046412 340.66651664 64.86743164 345.55639648 C63.72371094 346.6353418 63.72371094 346.6353418 62.55688477 347.73608398 C57.4252429 351.82071885 57.4252429 351.82071885 54.42659855 357.10026264 C54.42496425 357.82935935 54.42332994 358.55845606 54.42164612 359.30964661 C54.41140411 360.56505501 54.41140411 360.56505501 54.4009552 361.8458252 C54.40350815 362.76585327 54.4060611 363.68588135 54.40869141 364.63378906 C54.40085129 366.08521553 54.40085129 366.08521553 54.39285278 367.56596375 C54.3825927 369.6721668 54.3768289 371.77839535 54.37497139 373.88462257 C54.37131988 377.21736709 54.35462603 380.54981076 54.33421326 383.88249207 C54.27868766 393.35975555 54.24811761 402.83706409 54.22363281 412.31445312 C54.20776331 418.10697161 54.17754725 423.89927796 54.13886833 429.69168663 C54.12720944 431.900863 54.12128791 434.11007731 54.12118721 436.31928444 C54.1209953 439.41002168 54.10273763 442.50017385 54.08056641 445.59082031 C54.08514359 446.5047757 54.08972076 447.41873108 54.09443665 448.36038208 C53.99836952 456.778339 53.99836952 456.778339 50.67993164 460.30639648 C48.20664978 460.92112732 48.20664978 460.92112732 45.23046875 460.90576172 C44.11598862 460.91183945 43.00150848 460.91791718 41.85325623 460.92417908 C40.04849571 460.8948806 40.04849571 460.8948806 38.20727539 460.86499023 C36.97328506 460.86265884 35.73929474 460.86032745 34.46791077 460.85792542 C31.18844637 460.84567531 27.91019555 460.8106807 24.63104248 460.76629639 C21.29253997 460.72915806 17.95417983 460.73103317 14.61547852 460.72631836 C12.08356434 460.7122332 9.55166087 460.69602911 7.01977539 460.67749023 C5.81457748 460.67212753 4.60937958 460.66676483 3.36766052 460.66123962 C1.70066856 460.63725853 1.70066856 460.63725853 0 460.61279297 C-0.98134415 460.60215317 -1.96268829 460.59151337 -2.97377014 460.58055115 C-5.32006836 460.30639648 -5.32006836 460.30639648 -7.32006836 458.30639648 C-7.51704487 455.81570661 -7.58782732 453.43623283 -7.57175064 450.94436646 C-7.57465752 450.17275956 -7.5775644 449.40115266 -7.58055937 448.60616374 C-7.58791942 445.993306 -7.58088829 443.3806787 -7.57403564 440.76782227 C-7.57633771 438.88661134 -7.57951251 437.00540132 -7.58349013 435.12419319 C-7.59188175 429.93343125 -7.58769316 424.74274232 -7.5815177 419.55198002 C-7.57701197 413.96228082 -7.58396758 408.37259461 -7.58947754 402.78289795 C-7.59839336 391.82425626 -7.59643982 380.86564189 -7.59065226 369.90699911 C-7.58614436 361.00450509 -7.58551907 352.10201876 -7.58769989 343.19952393 C-7.58800636 341.93480763 -7.58831282 340.67009133 -7.58862858 339.36705029 C-7.58926799 336.79819282 -7.58991642 334.22933535 -7.59057376 331.66047788 C-7.59612054 308.23300101 -7.59035815 284.80554171 -7.57988856 261.37806824 C-7.57039683 239.97591444 -7.57124606 218.57378445 -7.58081055 197.17163086 C-7.59151184 173.14517016 -7.59573408 149.11872433 -7.58958602 125.09226036 C-7.58894889 122.53259659 -7.58832015 119.97293282 -7.58769989 117.41326904 C-7.58739134 116.15370616 -7.58708279 114.89414328 -7.58676489 113.59641182 C-7.58503453 104.69962694 -7.58796036 95.80285047 -7.592659 86.90606689 C-7.59825523 76.0710165 -7.59677799 65.2359951 -7.58609751 54.40094805 C-7.58082378 48.86764205 -7.57881282 43.33438449 -7.58539581 37.8010788 C-7.5913224 32.74319729 -7.58813506 27.68540945 -7.57744071 22.62753654 C-7.57519261 20.79042712 -7.57637417 18.95330992 -7.58119228 17.11620545 C-7.5872079 14.63349736 -7.5811037 12.151117 -7.57175064 9.66842651 C-7.57643297 8.94267071 -7.58111531 8.21691492 -7.58593953 7.46916652 C-7.53820414 1.19963727 -6.10529954 0.06619408 0 0 Z " fill="#1FBEFF" transform="translate(132.320068359375,25.693603515625)"/>
</svg>
