<?xml version="1.0" standalone="no"?>
<!DOCTYPE svg PUBLIC "-//W3C//DTD SVG 20010904//EN"
 "http://www.w3.org/TR/2001/REC-SVG-20010904/DTD/svg10.dtd">
<svg version="1.0" xmlns="http://www.w3.org/2000/svg"
 width="287.000000pt" height="300.000000pt" viewBox="0 0 287.000000 300.000000"
 preserveAspectRatio="xMidYMid meet">

<g transform="translate(0.000000,300.000000) scale(0.100000,-0.100000)"
fill="#000000" stroke="none">
<path d="M1235 2845 c-312 -49 -561 -179 -782 -409 -254 -263 -377 -571 -377
-941 0 -230 39 -396 140 -600 187 -377 529 -639 954 -731 132 -29 411 -27 549
4 537 121 934 521 1054 1062 28 127 30 393 4 520 -83 398 -322 735 -662 929
-260 149 -592 212 -880 166z m-211 -618 c53 -30 80 -78 80 -142 0 -95 -59
-153 -162 -162 -101 -8 -179 50 -189 140 -13 110 60 187 177 187 38 0 67 -7
94 -23z m958 -426 c57 -18 128 -71 165 -124 64 -94 67 -116 71 -489 l3 -338
-160 0 -161 0 0 290 c0 310 -3 335 -52 387 -49 52 -154 50 -210 -4 -58 -55
-58 -56 -58 -377 l0 -295 -160 -3 -160 -3 0 478 0 478 158 -3 157 -3 3 -55 3
-55 49 47 c65 62 145 90 245 84 39 -2 87 -9 107 -15z m-894 -478 l2 -473 -160
0 -160 0 0 475 0 476 158 -3 157 -3 3 -472z"/>
</g>
</svg>
